<svg width="167" height="154" viewBox="0 0 167 154" fill="none" xmlns="http://www.w3.org/2000/svg">
<g opacity="0.05">
<circle cx="5" cy="5" r="5" fill="#0F001A"/>
<circle cx="5" cy="33.6875" r="5" fill="#0F001A"/>
<circle cx="5" cy="62.375" r="5" fill="#0F001A"/>
<circle cx="5" cy="91.0625" r="5" fill="#0F001A"/>
<circle cx="5" cy="119.75" r="5" fill="#0F001A"/>
<circle cx="5" cy="148.438" r="5" fill="#0F001A"/>
<circle cx="33.6875" cy="5" r="5" fill="#0F001A"/>
<circle cx="33.6875" cy="33.6875" r="5" fill="#0F001A"/>
<circle cx="33.6875" cy="62.375" r="5" fill="#0F001A"/>
<circle cx="33.6875" cy="91.0625" r="5" fill="#0F001A"/>
<circle cx="33.6875" cy="119.75" r="5" fill="#0F001A"/>
<circle cx="33.6875" cy="148.438" r="5" fill="#0F001A"/>
<circle cx="76.375" cy="5" r="5" fill="#0F001A"/>
<circle cx="76.375" cy="33.6875" r="5" fill="#0F001A"/>
<circle cx="76.375" cy="62.375" r="5" fill="#0F001A"/>
<circle cx="76.375" cy="91.0625" r="5" fill="#0F001A"/>
<circle cx="76.375" cy="119.75" r="5" fill="#0F001A"/>
<circle cx="76.375" cy="148.438" r="5" fill="#0F001A"/>
<circle cx="105.062" cy="5" r="5" fill="#0F001A"/>
<circle cx="132.75" cy="5" r="5" fill="#0F001A"/>
<circle cx="161.438" cy="5" r="5" fill="#0F001A"/>
<circle cx="105.062" cy="33.6875" r="5" fill="#0F001A"/>
<circle cx="132.75" cy="33.6875" r="5" fill="#0F001A"/>
<circle cx="161.438" cy="33.6875" r="5" fill="#0F001A"/>
<circle cx="105.062" cy="62.375" r="5" fill="#0F001A"/>
<circle cx="132.75" cy="62.375" r="5" fill="#0F001A"/>
<circle cx="161.438" cy="62.375" r="5" fill="#0F001A"/>
<circle cx="105.062" cy="91.0625" r="5" fill="#0F001A"/>
<circle cx="105.062" cy="119.75" r="5" fill="#0F001A"/>
<circle cx="105.062" cy="148.438" r="5" fill="#0F001A"/>
<circle cx="132.75" cy="91.0625" r="5" fill="#0F001A"/>
<circle cx="132.75" cy="119.75" r="5" fill="#0F001A"/>
<circle cx="132.75" cy="148.438" r="5" fill="#0F001A"/>
<circle cx="161.438" cy="91.0625" r="5" fill="#0F001A"/>
<circle cx="161.438" cy="119.75" r="5" fill="#0F001A"/>
<circle cx="161.438" cy="148.438" r="5" fill="#0F001A"/>
</g>
</svg>
